<svg id="Layer_1" version="1.1" viewBox="0 0 512 512" xml:space="preserve" xmlns="http://www.w3.org/2000/svg" enable-background="new 0 0 512 512"><g id="Meeting"><circle cx="256.6" cy="257.1" r="215.6" fill="#ffffff" class="fill-eeedf2"></circle><g id="Bottom_line_12_"><path id="Right_39_" d="M422.5 472.7h50.2" fill="none" stroke="#222222" stroke-width="6" stroke-linecap="round" stroke-miterlimit="10" class="stroke-1e247e"></path><path id="Middle_43_" d="M85.5 472.7H409" fill="none" stroke="#222222" stroke-width="6" stroke-linecap="round" stroke-miterlimit="10" class="stroke-1e247e"></path><path id="Left_40_" d="M41.4 472.7h30.4" fill="none" stroke="#222222" stroke-width="6" stroke-linecap="round" stroke-miterlimit="10" class="stroke-1e247e"></path></g><g id="Speech_balloons_1_"><g id="Right_38_"><path d="M305.3 183.2v69c0 .8 1 1.2 1.5.6l16.3-16.3c2.5-2.5 5.9-3.9 9.4-3.9H404c10.1 0 18.3-8.2 18.3-18.3v-40.7c0-10.1-8.2-18.3-18.3-18.3h-70.8c-15.4 0-27.9 12.5-27.9 27.9z" id="Shadow_45_" fill="#82bcb6" class="fill-d3d5e7"></path><path d="M290.2 151.3v69c0 .8 1 1.2 1.5.6l16.3-16.3c2.5-2.5 5.9-3.9 9.4-3.9h71.5c10.1 0 18.3-8.2 18.3-18.3v-40.7c0-10.1-8.2-18.3-18.3-18.3h-70.8c-15.4 0-27.9 12.5-27.9 27.9z" id="Shape_60_" fill="#ffffff" stroke="#222222" stroke-width="6" stroke-miterlimit="10" class="fill-ffffff stroke-1e247e"></path><g id="Content_9_"><path id="_x33_rd_10_" d="M318.4 176.5H379" fill="none" stroke="#222222" stroke-width="5" stroke-linecap="round" stroke-miterlimit="10" class="stroke-1e247e"></path><path id="_x32_nd_11_" d="M318.4 162.3H379" fill="none" stroke="#222222" stroke-width="5" stroke-linecap="round" stroke-miterlimit="10" class="stroke-1e247e"></path><path id="_x31_st_11_" d="M318.4 148.2H379" fill="none" stroke="#222222" stroke-width="5" stroke-linecap="round" stroke-miterlimit="10" class="stroke-1e247e"></path></g><path d="M301 196.8c2.4-3.3 6.2-5.3 10.3-5.6" id="Line_20_" fill="none" stroke="#222222" stroke-width="3" stroke-linecap="round" stroke-miterlimit="10" class="stroke-1e247e"></path></g><g id="Left_39_"><path d="M242.3 142.8v69c0 .8-1 1.2-1.5.6l-16.3-16.3c-2.5-2.5-5.9-3.9-9.4-3.9h-71.5c-10.1 0-18.3-8.2-18.3-18.3v-40.7c0-10.1 8.2-18.3 18.3-18.3h70.8c15.5 0 27.9 12.5 27.9 27.9z" id="Shadow_44_" fill="#82bcb6" class="fill-d3d5e7"></path><path d="M216.5 106v69c0 .8-1 1.2-1.5.6l-16.3-16.3c-2.5-2.5-5.9-3.9-9.4-3.9h-71.5c-10.1 0-18.3-8.2-18.3-18.3V96.4c0-10.1 8.2-18.3 18.3-18.3h70.8c15.5 0 27.9 12.5 27.9 27.9z" id="Shape_59_" fill="#ffffff" stroke="#222222" stroke-width="6" stroke-miterlimit="10" class="fill-ffffff stroke-1e247e"></path><path d="M196 90.5c3.9 1.3 7 4.3 8.5 8" id="Line_19_" fill="none" stroke="#222222" stroke-width="3" stroke-linecap="round" stroke-miterlimit="10" class="stroke-1e247e"></path><g id="Content_8_"><path id="_x33_rd_9_" d="M123.2 130.4h60.6" fill="none" stroke="#222222" stroke-width="5" stroke-linecap="round" stroke-miterlimit="10" class="stroke-1e247e"></path><path id="_x32_nd_10_" d="M123.2 116.2h60.6" fill="none" stroke="#222222" stroke-width="5" stroke-linecap="round" stroke-miterlimit="10" class="stroke-1e247e"></path><path id="_x31_st_10_" d="M123.2 102.1H150" fill="none" stroke="#222222" stroke-width="5" stroke-linecap="round" stroke-miterlimit="10" class="stroke-1e247e"></path></g></g></g><g id="People"><g id="Left_38_"><g id="Person_4_"><g id="Body_12_"><path d="M236.7 472.1H117.2v-59.7c0-33 26.7-59.7 59.7-59.7s59.7 26.7 59.7 59.7v59.7z" id="Shape_58_" fill="#82bcb6" stroke="#222222" stroke-width="6" stroke-linejoin="round" stroke-miterlimit="10" class="fill-d3d5e7 stroke-1e247e"></path></g><g id="Head_5_"><circle cx="176.9" cy="307.7" id="Shape_57_" r="29.8" fill="#fcf5f2" stroke="#222222" stroke-width="6" stroke-linejoin="round" stroke-miterlimit="10" class="fill-fcf5f2 stroke-1e247e"></circle></g></g><path d="M204.4 375.9c5.3 4.4 9.4 10 11.9 16.3" id="Line_18_" fill="none" stroke="#222222" stroke-width="3" stroke-linecap="round" stroke-linejoin="round" stroke-miterlimit="10" class="stroke-1e247e"></path><g id="Lines_26_"></g><g id="Sparkles_13_"></g></g><g id="Right_37_"><g id="Person_3_"><g id="Body_11_"><path d="M395.5 471.8H276v-59.7c0-33 26.7-59.7 59.7-59.7s59.7 26.7 59.7 59.7v59.7z" id="Shape_56_" fill="#ffffff" stroke="#222222" stroke-width="6" stroke-linejoin="round" stroke-miterlimit="10" class="fill-da867d stroke-1e247e"></path></g><g id="Head_4_"><circle cx="335.7" cy="307.5" id="Shape_55_" r="29.8" fill="#fcf5f2" stroke="#222222" stroke-width="6" stroke-linejoin="round" stroke-miterlimit="10" class="fill-fcf5f2 stroke-1e247e"></circle></g></g><path d="M363.2 374c5.3 4.4 9.4 10 11.9 16.3" id="Line_17_" fill="none" stroke="#222222" stroke-width="3" stroke-linecap="round" stroke-linejoin="round" stroke-miterlimit="10" class="stroke-1e247e"></path><g id="Lines_25_"></g><g id="Sparkles_12_"></g></g></g></g></svg>